# File created by Blade
# Date/Time:  Mon Nov 18 17:26:10 2013
# Frame Rate: 100.000 fps
#------------------------------------------------------
:FULLY-SPECIFIED
:DEGREES
197
root -39.126167 -3.079903 39.428805 7.291132 -1.944261 17.534544
Spine 22.446740 -2.566742 1.849305
Spine1 8.307788 -0.939119 3.950266
Spine2 -21.976379 -2.314755 -0.057761
NeckDummy -0.128826 0.166495 0.869670 13.898238 -0.997320 0.467699
Neck 2.947942 -14.862896 41.500290
Head -0.413877 0.071293 0.275618 -5.584672 -4.977079 -2.043235
LeftShoulderDummy -0.171440 0.188564 0.898760 13.897225 -1.159847 0.669069
LeftShoulder 6.575012 -10.829281 17.250903
LeftArm 16.694881 37.959955 18.994024
LeftForeArm 50.470198
LeftForeArmRoll 19.588858
LeftHand -33.788188 -23.233141 12.008474
LeftHandThumb1 14.824503 3.462130
LeftHandIndex1 -0.988577 39.597538
LeftHandPinky1 0.640652 58.897827
RightShoulderDummy -0.120142 0.166928 0.832909 13.876630 0.990301 -0.427024
RightShoulder 6.315289 5.232971 7.750196
RightArm 1.616831 62.236480 39.407438
RightForeArm 100.791383
RightForeArmRoll 27.625340
RightHand -44.998620 -21.387745 11.420111
RightHandThumb1 13.975827 7.718717
RightHandIndex1 4.085647 28.571347
RightHandPinky1 9.085630 59.196509
LeftUpLeg -8.412956 23.694485 -41.116102
LeftLeg 43.528701
LeftFoot 0.014751 -0.733510 -1.395958 -24.458777 17.049378 -3.238416
LeftToeBase -0.116089
RightUpLeg -4.268178 18.091849 -28.976750
RightLeg 49.154789
RightFoot -0.629345 0.827941 0.847880 -21.163569 8.724174 -21.235761
RightToeBase -1.001227
198
root -38.913948 -3.082303 39.400813 7.421033 -1.952224 17.339097
Spine 22.406468 -2.726268 1.915330
Spine1 8.293206 -0.994275 4.032863
Spine2 -22.005781 -2.235653 0.010844
NeckDummy -0.127223 0.168964 0.872722 13.884839 -1.047858 0.522175
Neck 2.835309 -14.888896 41.383520
Head -0.416215 0.071544 0.280536 -5.655222 -5.013236 -2.038161
LeftShoulderDummy -0.170540 0.192582 0.902879 13.883241 -1.214298 0.737850
LeftShoulder 6.497913 -10.835617 17.193420
LeftArm 16.761933 37.931550 19.130693
LeftForeArm 50.388754
LeftForeArmRoll 19.804800
LeftHand -33.807980 -23.205933 12.034234
LeftHandThumb1 14.942654 3.443508
LeftHandIndex1 -1.019253 39.406278
LeftHandPinky1 0.493858 58.767216
RightShoulderDummy -0.118057 0.168397 0.834932 13.862652 1.040271 -0.483991
RightShoulder 6.276280 5.181512 7.677882
RightArm 1.854976 62.375557 39.505523
RightForeArm 100.940911
RightForeArmRoll 26.914573
RightHand -45.215195 -21.807460 11.774316
RightHandThumb1 14.189923 7.744126
RightHandIndex1 3.596145 28.006391
RightHandPinky1 8.969773 58.899729
LeftUpLeg -7.973199 23.571772 -41.396132
LeftLeg 44.095728
LeftFoot 0.028989 -0.734661 -1.416545 -24.251775 16.893447 -3.590262
LeftToeBase -0.004026
RightUpLeg -4.452366 18.345700 -29.009409
RightLeg 48.831759
RightFoot -0.646714 0.839151 0.834182 -21.326305 8.661654 -20.979122
RightToeBase -1.002463
199
root -38.698663 -3.081692 39.364201 7.571919 -1.959166 17.206812
Spine 22.391728 -2.832825 1.986381
Spine1 8.277329 -1.011864 4.137084
Spine2 -22.051749 -2.162809 -0.013598
NeckDummy -0.124060 0.171689 0.878966 13.842553 -1.018497 0.472165
Neck 2.687046 -14.858930 41.265564
Head -0.420624 0.070529 0.281508 -5.662727 -5.032200 -2.061798
LeftShoulderDummy -0.167727 0.194718 0.908498 13.840533 -1.186655 0.700526
LeftShoulder 6.460802 -10.720665 17.036643
LeftArm 16.966696 37.927320 19.312538
LeftForeArm 50.251008
LeftForeArmRoll 19.870227
LeftHand -33.739014 -23.195186 12.101408
LeftHandThumb1 14.833525 3.594252
LeftHandIndex1 -1.091677 39.632227
LeftHandPinky1 0.431061 59.033179
RightShoulderDummy -0.113811 0.171912 0.841754 13.820858 1.008164 -0.434455
RightShoulder 6.278573 5.045433 7.689347
RightArm 2.153600 62.560939 39.668856
RightForeArm 101.084315
RightForeArmRoll 26.023624
RightHand -45.339767 -22.392167 12.167654
RightHandThumb1 14.542337 7.803826
RightHandIndex1 3.108963 27.897796
RightHandPinky1 8.768704 58.866970
LeftUpLeg -7.617037 23.388564 -41.719193
LeftLeg 44.654788
LeftFoot 0.041387 -0.737130 -1.432239 -24.046329 16.779353 -3.938575
LeftToeBase 0.086694
RightUpLeg -4.722000 18.584998 -28.998314
RightLeg 48.422114
RightFoot -0.654211 0.843486 0.824835 -21.530797 8.701584 -20.645911
RightToeBase -1.033465
200
root -38.483207 -3.078617 39.329415 7.721636 -1.977641 17.055461
Spine 22.374701 -2.951371 2.055650
Spine1 8.263292 -1.050107 4.234913
Spine2 -22.106303 -2.063732 -0.019142
NeckDummy -0.119608 0.173014 0.884251 13.820157 -1.003430 0.442686
Neck 2.546663 -14.807905 41.132923
Head -0.425458 0.070896 0.279725 -5.648006 -5.111607 -2.070935
LeftShoulderDummy -0.163937 0.195356 0.913594 13.818869 -1.173824 0.671097
LeftShoulder 6.343738 -10.578262 16.950652
LeftArm 17.050256 37.977396 19.516999
LeftForeArm 50.082569
LeftForeArmRoll 20.144669
LeftHand -33.946250 -23.245447 12.100045
LeftHandThumb1 14.873730 3.682170
LeftHandIndex1 -0.753332 39.677525
LeftHandPinky1 0.793896 59.031893
RightShoulderDummy -0.108394 0.173661 0.847367 13.799272 0.990352 -0.398691
RightShoulder 6.321450 4.940948 7.646005
RightArm 2.509820 62.744251 39.862387
RightForeArm 101.211963
RightForeArmRoll 25.133083
RightHand -45.643067 -22.737877 12.319629
RightHandThumb1 14.361554 7.578006
RightHandIndex1 2.899236 27.283788
RightHandPinky1 8.607742 58.522874
LeftUpLeg -7.226365 23.237659 -41.993966
LeftLeg 45.143121
LeftFoot 0.052042 -0.734820 -1.448833 -23.865011 16.651560 -4.238792
LeftToeBase 0.131166
RightUpLeg -4.962292 18.811254 -28.997266
RightLeg 48.016430
RightFoot -0.660223 0.846774 0.815153 -21.650533 8.736932 -20.294583
RightToeBase -1.081044
